# xmcd
#
# Track frame offsets: 
#        150
#        16400
#        26798
#        44779
#        61040
#        76491
#        90750
#        111770
#        128375
#        142513
#        156616
#        171800
#
# Disc length: 2492 seconds
#
# Revision: 0
# Processed by: cddbd v1.5.2PL0 Copyright (c) Steve Scherf et al.
# Submitted via: ExactAudioCopy v0.95b4
#
DISCID=8d09ba0c
DTITLE=Murray McLauchlan - Heroes
DYEAR=1900
DGENRE=Country
TTITLE0=Railroad Man
TTITLE1=Little Brothers Of the World
TTITLE2=Smoke On The wind
TTITLE3=Highways In The Sky
TTITLE4=Barroom Ladies And Michaelangelos
TTITLE5=Moonnlighting
TTITLE6=Sayonara  Marverick
TTITLE7=Ten Thousands Miles From Shore
TTITLE8=I Know
TTITLE9=Last go round!
TTITLE10=Heroes
TTITLE11=Horses
EXTD=
EXTT0=
EXTT1=
EXTT2=
EXTT3=
EXTT4=
EXTT5=
EXTT6=
EXTT7=
EXTT8=
EXTT9=
EXTT10=
EXTT11=
PLAYORDER=
